# xmcd
#
# Track frame offsets: 
#        150
#        7128
#        53240
#        68042
#        80742
#        98752
#        108126
#        123340
#        147722
#        166560
#        171746
#        211644
#        236357
#
# Disc length: 3256 seconds
#
# Revision: 0
# Processed by: cddbd v1.5.2PL0 Copyright (c) Steve Scherf et al.
# Submitted via: ExactAudioCopyFreeDBPlugin 1.0
#
DISCID=ad0cb60d
DTITLE=Daniel Norgren - Buck
DYEAR=2013
DGENRE=Blues
TTITLE0=Go Play With Him
TTITLE1=Howling Around My Happy Home
TTITLE2=Once A Queen
TTITLE3=Driving Ghosts Out Of Black Buck With A Weld
TTITLE4=Putting My Tomorrows Behind
TTITLE5=Whatever Turns You On
TTITLE6=Black Vultures
TTITLE7=Music Tape
TTITLE8=I Am A Welder
TTITLE9=Tar
TTITLE10=Moonshine Got Me (Live)
TTITLE11=My Hobo Is Rambling
TTITLE12=Don't Touch It
EXTD=
EXTT0=
EXTT1=
EXTT2=
EXTT3=
EXTT4=
EXTT5=
EXTT6=
EXTT7=
EXTT8=
EXTT9=
EXTT10=
EXTT11=
EXTT12=
PLAYORDER=
